<svg width="85" height="43" viewBox="0 0 85 43" fill="none" xmlns="http://www.w3.org/2000/svg">
<path d="M21.4998 12.1498V16.6498H7.2998V37.6998H22.4998V42.1998H9.3998C8.83313 42.1998 8.0498 42.1831 7.0498 42.1498C6.08313 42.1498 5.0998 41.9498 4.0998 41.5498C3.13313 41.1831 2.28313 40.5165 1.5498 39.5498C0.816471 38.6165 0.399805 37.2165 0.299805 35.3498C0.133138 32.2831 0.0498047 29.1665 0.0498047 25.9998C0.083138 22.7998 0.166472 19.6665 0.299805 16.5998C0.366472 15.2998 0.949804 14.2331 2.0498 13.3998C3.1498 12.5665 4.81647 12.1498 7.0498 12.1498H21.4998ZM28.49 0.549805H35.49V42.2498H28.49V0.549805ZM43.4803 0.549805H50.4803V42.2498H43.4803V0.549805ZM58.0205 16.5998C58.0872 15.2998 58.6705 14.2331 59.7705 13.3998C60.8705 12.5665 62.5372 12.1498 64.7705 12.1498H76.4205C77.1538 12.1498 77.9538 12.2165 78.8205 12.3498C79.6872 12.4498 80.4872 12.7165 81.2205 13.1498C81.9538 13.5831 82.5705 14.2331 83.0705 15.0998C83.6038 15.9665 83.9038 17.1498 83.9705 18.6498C84.1038 21.7831 84.1538 25.0831 84.1205 28.5498C84.1205 32.0165 84.0705 35.3165 83.9705 38.4498C83.9372 39.2165 83.7205 39.8665 83.3205 40.3998C82.9205 40.9665 82.4038 41.4165 81.7705 41.7498C81.1372 42.0831 80.4205 42.3165 79.6205 42.4498C78.8538 42.6165 78.0705 42.6998 77.2705 42.6998H67.1205C66.5538 42.6998 65.7705 42.6831 64.7705 42.6498C63.8038 42.6498 62.8205 42.4498 61.8205 42.0498C60.8538 41.6831 60.0038 41.0165 59.2705 40.0498C58.5372 39.1165 58.1205 37.7165 58.0205 35.8498C57.8538 32.7831 57.7705 29.5831 57.7705 26.2498C57.8038 22.8831 57.8872 19.6665 58.0205 16.5998ZM76.9705 16.6498H65.0205V38.1998H76.9705V16.6498Z" fill="#1B1B1E"/>
</svg>
