<svg xmlns="http://www.w3.org/2000/svg" width="17" height="16" viewBox="0 0 17 16" fill="none">
  <path d="M8.53868 0.000160594C0.345796 -0.0429549 -3.45302 8.60673 3.99779 12.4492C3.86677 12.9006 3.15648 15.3539 3.12805 15.5467C3.10779 15.6974 3.22264 15.8237 3.40886 15.7591C3.67796 15.7213 6.5273 13.7198 7.02053 13.3723C18.8351 14.7864 21.1615 0.542822 8.53868 0.000160594Z" fill="#3D1D1C"/>
  <path d="M4.30635 8.62115C4.29037 9.24057 3.337 9.24298 3.32008 8.62115V5.69171H2.55069C1.91344 5.67554 1.91214 4.74261 2.55069 4.72607H5.07574C5.71337 4.74299 5.71411 5.6748 5.07574 5.69171H4.30635V8.62115Z" fill="#FFE812"/>
  <path d="M8.45127 9.01763C8.22993 9.13434 7.80175 9.10591 7.72741 8.86784L7.48321 8.22855H5.97956L5.73518 8.86822C5.66121 9.10591 5.23284 9.13453 5.01169 9.01763C4.87565 8.95501 4.74501 8.78254 4.89479 8.31738L6.07434 5.21287C6.31575 4.57618 7.14591 4.57339 7.3888 5.21343L8.56779 8.31664C8.71777 8.78273 8.58712 8.95519 8.45127 9.01763Z" fill="#FFE812"/>
  <path d="M10.9424 9.01998H9.36029C9.09974 9.01998 8.8877 8.81722 8.8877 8.56801V5.21893C8.90461 4.56997 9.87712 4.56793 9.89441 5.21893V8.11585H10.9424C11.5648 8.13128 11.5661 9.00418 10.9424 9.01998Z" fill="#FFE812"/>
  <path d="M14.8032 8.6488C14.7593 9.0716 14.1652 9.22733 13.9214 8.87758L12.765 7.3453L12.5939 7.51646V8.59231C12.5777 9.24127 11.6245 9.24369 11.6074 8.59249V5.21907C11.6245 4.56955 12.5762 4.56825 12.5937 5.21907V6.27894L13.9695 4.90314C14.1345 4.7357 14.4215 4.77175 14.5824 4.93901C14.7498 5.09809 14.7861 5.38838 14.6186 5.55192L13.4948 6.67552L14.7086 8.28362C14.7876 8.38769 14.8216 8.51927 14.8032 8.6488Z" fill="#FFE812"/>
  <path d="M6.2373 7.35478H7.22227L6.72979 5.95557L6.2373 7.35478Z" fill="#3D1D1C"/>
</svg>