<svg xmlns="http://www.w3.org/2000/svg" width="17" height="20" viewBox="0 0 17 20" fill="none">
  <path d="M8.21466 4.76954C8.00328 3.61726 8.54813 2.43143 9.20428 1.63228C9.92741 0.750515 11.1684 0.0743107 12.2289 0C12.4081 1.20809 11.915 2.38516 11.2661 3.21774C10.5699 4.11218 9.37291 4.8058 8.21466 4.76954ZM14.4353 8.94486C14.7634 8.02932 15.4135 7.20558 16.4221 6.6498C15.4029 5.37799 13.972 4.63961 12.6216 4.63961C10.835 4.63961 10.0796 5.49081 8.83866 5.49081C7.56033 5.49081 6.59053 4.63961 5.04299 4.63961C3.52548 4.63961 1.91015 5.56454 0.885705 7.14419C0.509032 7.72808 0.25387 8.45347 0.114712 9.26142C-0.271424 11.5279 0.305376 14.4801 2.02596 17.1014C2.86254 18.3734 3.97763 19.8061 5.43437 19.8186C6.73205 19.8313 7.10019 18.9889 8.85693 18.9803C10.6163 18.9703 10.9497 19.8274 12.2456 19.815C13.7028 19.8027 14.8793 18.2171 15.7159 16.9453C16.3115 16.0326 16.5368 15.5716 17 14.5398C14.6447 13.6516 13.6761 11.0563 14.4353 8.94486Z" fill="black"/>
</svg>