<svg width="85" height="43" viewBox="0 0 85 43" fill="none" xmlns="http://www.w3.org/2000/svg">
<path d="M21.5 12.15V16.65H7.3V37.7H22.5V42.2H9.4C8.83333 42.2 8.05 42.1833 7.05 42.15C6.08333 42.15 5.1 41.95 4.1 41.55C3.13333 41.1833 2.28333 40.5167 1.55 39.55C0.816667 38.6167 0.4 37.2167 0.3 35.35C0.133333 32.2833 0.0500002 29.1667 0.0500002 26C0.0833335 22.8 0.166667 19.6667 0.3 16.6C0.366667 15.3 0.95 14.2333 2.05 13.4C3.15 12.5667 4.81667 12.15 7.05 12.15H21.5ZM28.4902 0.549999H35.4902V42.25H28.4902V0.549999ZM43.4805 0.549999H50.4805V42.25H43.4805V0.549999ZM58.0207 16.6C58.0874 15.3 58.6707 14.2333 59.7707 13.4C60.8707 12.5667 62.5374 12.15 64.7707 12.15H76.4207C77.154 12.15 77.954 12.2167 78.8207 12.35C79.6874 12.45 80.4874 12.7167 81.2207 13.15C81.954 13.5833 82.5707 14.2333 83.0707 15.1C83.604 15.9667 83.904 17.15 83.9707 18.65C84.104 21.7833 84.154 25.0833 84.1207 28.55C84.1207 32.0167 84.0707 35.3167 83.9707 38.45C83.9374 39.2167 83.7207 39.8667 83.3207 40.4C82.9207 40.9667 82.404 41.4167 81.7707 41.75C81.1374 42.0833 80.4207 42.3167 79.6207 42.45C78.854 42.6167 78.0707 42.7 77.2707 42.7H67.1207C66.554 42.7 65.7707 42.6833 64.7707 42.65C63.804 42.65 62.8207 42.45 61.8207 42.05C60.854 41.6833 60.004 41.0167 59.2707 40.05C58.5374 39.1167 58.1207 37.7167 58.0207 35.85C57.854 32.7833 57.7707 29.5833 57.7707 26.25C57.804 22.8833 57.8874 19.6667 58.0207 16.6ZM76.9707 16.65H65.0207V38.2H76.9707V16.65Z" fill="url(#paint0_linear_59_3285)"/>
<defs>
<linearGradient id="paint0_linear_59_3285" x1="88" y1="48" x2="-3" y2="48" gradientUnits="userSpaceOnUse">
<stop stop-color="#EE276C"/>
<stop offset="1" stop-color="#BF06A1"/>
</linearGradient>
</defs>
</svg>
