<svg xmlns="http://www.w3.org/2000/svg" width="17" height="18" viewBox="0 0 17 18" fill="none">
  <path fill-rule="evenodd" clip-rule="evenodd" d="M3.55806 8.68541C3.55806 8.12127 3.65175 7.58042 3.81898 7.07313L0.891887 4.83789C0.321411 5.99617 0 7.30131 0 8.68541C0 10.0683 0.321016 11.3727 0.890701 12.5302L3.81622 10.2906C3.65057 9.78566 3.55806 9.24678 3.55806 8.68541Z" fill="#FBBC05"/>
  <path fill-rule="evenodd" clip-rule="evenodd" d="M8.69719 3.55301C9.92274 3.55301 11.0297 3.98727 11.8994 4.69787L14.4296 2.17128C12.8878 0.829036 10.9111 0 8.69719 0C5.26011 0 2.30613 1.9656 0.891602 4.83762L3.8187 7.07286C4.49315 5.02554 6.41568 3.55301 8.69719 3.55301Z" fill="#EB4335"/>
  <path fill-rule="evenodd" clip-rule="evenodd" d="M8.69719 13.8177C6.41569 13.8177 4.49315 12.3452 3.8187 10.2979L0.891602 12.5327C2.30613 15.4051 5.26011 17.3707 8.69719 17.3707C10.8186 17.3707 12.8439 16.6175 14.364 15.2061L11.5855 13.0581C10.8016 13.552 9.81442 13.8177 8.69719 13.8177Z" fill="#34A853"/>
  <path fill-rule="evenodd" clip-rule="evenodd" d="M16.9994 8.68507C16.9994 8.17186 16.9203 7.61917 16.8017 7.10596H8.69727V10.4616H13.3623C13.129 11.6056 12.4941 12.4852 11.5856 13.0576L14.3641 15.2056C15.9608 13.7236 16.9994 11.516 16.9994 8.68507Z" fill="#4285F4"/>
</svg>